<svg width="74" height="103" viewBox="0 0 74 103" fill="none" xmlns="http://www.w3.org/2000/svg">
<path d="M24.4615 14.3558C24.4615 17.1771 25.3898 19.7836 26.9555 21.8839C23.4963 24.5776 19.0899 28.8632 15.3775 34.3144C11.1768 40.4828 7.80289 48.2371 7.80289 56.9279C7.80289 70.664 16.1627 78.0657 23.3078 81.3918L3.4887 84.8979C2.7722 85.0247 2.25 85.6474 2.25 86.375V99.5C2.25 100.328 2.92157 101 3.75 101L70.3846 101C70.7824 101 71.164 100.842 71.4453 100.561C71.7266 100.279 71.8846 99.8978 71.8846 99.5V86.375C71.8846 85.6465 71.3612 85.0234 70.6437 84.8976L50.1069 81.2957C57.2018 77.9253 65.4063 70.5333 65.4063 56.9279C65.4063 45.6601 60.1642 35.6955 53.8789 28.5122C53.3549 27.9134 52.4544 27.8279 51.8271 28.3175C48.2098 31.1407 45.0199 35.7455 42.739 40.7187C40.69 45.1864 39.3089 50.0941 39.0457 54.5024H35.0182C35.3107 42.447 39.145 30.6329 47.1281 21.9389C47.165 21.8987 47.1997 21.8565 47.232 21.8125C48.7663 19.7242 49.6731 17.1437 49.6731 14.3558C49.6731 7.39377 44.0293 1.75 37.0673 1.75C30.1053 1.75 24.4615 7.39377 24.4615 14.3558Z" fill="#F4F7FA" stroke="black" stroke-width="3" stroke-linejoin="round"/>
</svg>
