<svg width="97" height="108" viewBox="0 0 97 108" fill="none" xmlns="http://www.w3.org/2000/svg">
<path d="M43.8782 2.86698C43.5548 2.48978 43.0656 2.2972 42.5718 2.35272C42.0781 2.40824 41.6439 2.70465 41.4123 3.14426C40.2018 5.44228 39.011 8.61061 38.541 11.9623C38.167 14.6296 38.2375 17.509 39.2066 20.1693C38.3128 20.3302 37.4532 20.5521 36.6913 20.8579C28.8662 23.9982 20.5771 32.0068 16.5448 48.1362C15.5035 52.3014 13.6855 54.2484 11.2757 56.8131C8.93977 59.2991 6.16332 62.2542 3.51306 67.9964C0.55201 74.412 3.09034 80.8522 7.78697 84.1961C12.5477 87.5857 19.4907 87.7992 25.1857 82.1042C30.8052 76.4847 35.689 74.1757 39.9139 72.1804L40.0262 72.1273C43.0114 70.7176 45.8599 69.3725 48.2367 67.0118C49.2267 66.0285 50.1183 64.8883 50.915 63.525C49.9827 68.1264 47.2485 73.459 40.8348 77.3355C34.7297 81.0254 31.0889 86.7264 29.0094 91.9832C26.9387 97.2175 26.3528 102.17 26.4859 104.583C26.5297 105.378 27.1873 106 27.9836 106H93.25C94.0784 106 94.75 105.328 94.75 104.5C94.75 83.9004 93.3927 64.5104 88.2889 49.539C83.2219 34.6756 74.3671 23.9418 59.3479 20.91L43.8782 2.86698Z" fill="#F4F7FA" stroke="#0A0A0A" stroke-width="3" stroke-linejoin="round"/>
</svg>
