<svg width="75" height="98" viewBox="0 0 75 98" fill="none" xmlns="http://www.w3.org/2000/svg">
<path d="M17.75 20.8333C17.75 25.8619 19.7222 30.4312 22.9318 33.8076L16.2183 38.5465C15.8201 38.8276 15.5833 39.2846 15.5833 39.772V51.1667C15.5833 51.9951 16.2549 52.6667 17.0833 52.6667H23.9832C23.1224 56.9279 20.251 61.294 16.4302 65.3113C11.8952 70.0796 6.41855 73.9402 2.80164 76.007L2.25579 76.319C1.78843 76.586 1.5 77.083 1.5 77.6213V94.5C1.5 95.3284 2.17157 96 3 96H71.25C72.0784 96 72.75 95.3284 72.75 94.5V77.6213C72.75 77.083 72.4616 76.586 71.9942 76.319L71.4484 76.007C67.8315 73.9402 62.3548 70.0796 57.8198 65.3113C53.999 61.294 51.1276 56.9279 50.2669 52.6667H57.1667C57.9951 52.6667 58.6667 51.9951 58.6667 51.1667V39.772C58.6667 39.2846 58.4299 38.8276 58.0317 38.5465L50.6612 33.3439C53.6182 30.0184 55.4167 25.635 55.4167 20.8333C55.4167 10.432 46.9847 2 36.5833 2C26.182 2 17.75 10.432 17.75 20.8333Z" fill="#34364C" stroke="white" stroke-width="3" stroke-linejoin="round"/>
</svg>
