<svg width="116" height="107" viewBox="0 0 116 107" fill="none" xmlns="http://www.w3.org/2000/svg">
<path d="M32 12.5C32 17.2116 35.1779 21.1791 39.5077 22.3787L36.1216 49.7704L20.5965 36.2863C21.9452 34.5511 22.75 32.3688 22.75 30C22.75 24.3391 18.1609 19.75 12.5 19.75C6.83908 19.75 2.25 24.3391 2.25 30C2.25 35.6609 6.83908 40.25 12.5 40.25C12.9742 40.25 13.4414 40.2177 13.8994 40.1551L23.31 72.42C23.3471 72.5473 23.4009 72.6691 23.4701 72.7822L32.4571 87.4883L24.4887 88.8979C23.7722 89.0247 23.25 89.6474 23.25 90.375V103.5C23.25 104.328 23.9216 105 24.75 105L91.3846 105C91.7824 105 92.164 104.842 92.4453 104.561C92.7266 104.279 92.8846 103.898 92.8846 103.5V90.375C92.8846 89.6465 92.3612 89.0234 91.6437 88.8975L83.5492 87.4779L92.5299 72.7822C92.5991 72.6691 92.6529 72.5473 92.69 72.42L102.101 40.1551C102.559 40.2177 103.026 40.25 103.5 40.25C109.161 40.25 113.75 35.6609 113.75 30C113.75 24.3391 109.161 19.75 103.5 19.75C97.8391 19.75 93.25 24.3391 93.25 30C93.25 32.3688 94.0548 34.5511 95.4035 36.2862L79.8783 49.7704L76.4923 22.3787C80.8221 21.1791 84 17.2116 84 12.5C84 6.83908 79.4109 2.25 73.75 2.25C68.0891 2.25 63.5 6.83908 63.5 12.5C63.5 16.3062 65.5742 19.6252 68.6504 21.3929L58 45.5338L47.3496 21.3929C50.4258 19.6252 52.5 16.3062 52.5 12.5C52.5 6.83908 47.9109 2.25 42.25 2.25C36.5891 2.25 32 6.83908 32 12.5Z" fill="#34364C" stroke="white" stroke-width="3" stroke-linejoin="round"/>
</svg>
