<svg width="104" height="108" viewBox="0 0 104 108" fill="none" xmlns="http://www.w3.org/2000/svg">
<path d="M46.5 1.5C45.6898 1.5 45.026 2.14336 45.0007 2.95315L44.7727 10.25H36C35.1716 10.25 34.5 10.9216 34.5 11.75V22.25C34.5 23.0784 35.1716 23.75 36 23.75H44.3365L44.0601 30.5835C39.4818 26.2521 34.0398 22.9356 28.4319 21.5148C21.9994 19.8851 15.3248 20.756 9.66471 25.4727C-1.69709 34.9408 -1.41077 56.1893 13.6416 68.3079L14.5822 67.1395L13.6416 68.3079C17.7501 71.6157 21.4998 74.7542 24.1916 78.1763C26.5855 81.2195 28.0842 84.4148 28.2443 88.0749L14.8349 89.8885C14.0909 89.9892 13.5359 90.6243 13.5359 91.375V104.5C13.5359 105.328 14.2075 106 15.0359 106H88.4641C89.2925 106 89.9641 105.328 89.9641 104.5V91.375C89.9641 90.6243 89.4091 89.9892 88.6651 89.8885L75.2557 88.0749C75.4158 84.4148 76.9145 81.2195 79.3084 78.1763C82.0002 74.7542 85.7499 71.6157 89.8584 68.3079C104.911 56.1893 105.197 34.9408 93.8353 25.4727C88.1752 20.756 81.5006 19.8851 75.0681 21.5148C69.4602 22.9356 64.0182 26.2521 59.4399 30.5835L59.1635 23.75H67.5C68.3284 23.75 69 23.0784 69 22.25V11.75C69 10.9216 68.3284 10.25 67.5 10.25H58.7273L58.4993 2.95315C58.474 2.14336 57.8102 1.5 57 1.5H46.5ZM35.3288 43.9846C40.9069 53.1215 42.1509 63.7103 42.3448 69.5651C41.8412 69.4268 41.2402 69.2325 40.5494 68.9724C38.9419 68.3671 36.9966 67.4627 34.9419 66.2851C30.8161 63.9206 26.3691 60.5243 23.3246 56.3713C21.1728 53.4359 19.8112 49.7731 19.4552 46.4515C19.0915 43.0581 19.803 40.4138 21.2635 39.0751C22.7169 37.743 25.1828 37.3467 27.9746 38.1961C30.7266 39.0335 33.5208 41.0232 35.3288 43.9846ZM62.9506 68.9724C62.2598 69.2325 61.6588 69.4268 61.1552 69.5651C61.3491 63.7103 62.5931 53.1215 68.1712 43.9846C69.9792 41.0232 72.7734 39.0335 75.5254 38.1961C78.3172 37.3467 80.7831 37.743 82.2365 39.0751C83.697 40.4138 84.4085 43.0581 84.0448 46.4515C83.6888 49.7731 82.3272 53.4359 80.1754 56.3713C77.1309 60.5243 72.6839 63.9206 68.5581 66.2851C66.5034 67.4627 64.5581 68.3671 62.9506 68.9724Z" fill="#F4F7FA" stroke="black" stroke-width="3" stroke-linejoin="round"/>
</svg>
