<svg width="75" height="100" viewBox="0 0 75 100" fill="none" xmlns="http://www.w3.org/2000/svg">
<path d="M22 3.75C22 2.92157 21.3284 2.25 20.5 2.25H3C2.17157 2.25 1.5 2.92157 1.5 3.75V19.5C1.5 19.9721 1.72229 20.4167 2.1 20.7L15.4146 30.6859L12.0092 61.3344C11.9621 61.7584 12.0978 62.1825 12.3823 62.5004C12.6669 62.8183 13.0733 63 13.5 63H60.75C61.1767 63 61.5831 62.8183 61.8677 62.5004C62.1522 62.1825 62.2879 61.7584 62.2408 61.3344L58.8354 30.6859L72.15 20.7C72.5277 20.4167 72.75 19.9721 72.75 19.5V3.75C72.75 2.92157 72.0784 2.25 71.25 2.25H53.75C52.9216 2.25 52.25 2.92157 52.25 3.75V12.75H48.25V3.75C48.25 2.92157 47.5784 2.25 46.75 2.25H27.5C26.6716 2.25 26 2.92157 26 3.75V12.75H22V3.75ZM61.95 67.6C61.6667 67.2223 61.2221 67 60.75 67H13.5C13.0279 67 12.5833 67.2223 12.3 67.6L1.8 81.6C1.60527 81.8596 1.5 82.1754 1.5 82.5V96.5C1.5 97.3284 2.17157 98 3 98H71.25C72.0784 98 72.75 97.3284 72.75 96.5V82.5C72.75 82.1755 72.6447 81.8596 72.45 81.6L61.95 67.6Z" fill="#F4F7FA" stroke="black" stroke-width="3" stroke-linejoin="round"/>
</svg>
